<?xml version="1.0" encoding="UTF-8"?>
<svg version="1.1" xmlns="http://www.w3.org/2000/svg" width="500" height="500">
<path d="M0 0 C0.72252457 -0.00095673 1.44504913 -0.00191345 2.18946838 -0.00289917 C3.71851692 -0.00358002 5.24756834 -0.00173236 6.77661133 0.00244141 C9.11611442 0.00778329 11.45542484 0.00249726 13.79492188 -0.00390625 C15.27994834 -0.0032453 16.76497469 -0.00196379 18.25 0 C19.30011513 -0.00303635 19.30011513 -0.00303635 20.3714447 -0.00613403 C23.42367408 0.00857709 25.7713555 0.15946225 28.69140625 1.1328125 C32.56024522 8.87049044 28.83901243 19.85797469 26.62890625 27.6328125 C25.98055588 30.02310829 25.33345842 32.4137442 24.6875 34.8046875 C24.18839111 36.62709961 24.18839111 36.62709961 23.67919922 38.48632812 C22.11310388 44.267643 20.64456761 50.07223003 19.19140625 55.8828125 C18.75803955 57.61084106 18.75803955 57.61084106 18.31591797 59.3737793 C15.84331073 69.32811946 13.61069285 79.3307735 11.38891602 89.34350586 C9.17497171 99.25316297 6.693534 109.07871834 4.11605835 118.89935303 C1.51265709 128.82521965 -0.89337797 138.77809503 -3.16259766 148.78515625 C-4.99549395 156.84741468 -6.96334343 164.86870793 -8.98876953 172.88452148 C-10.9825547 180.78794793 -12.90554309 188.70708043 -14.80859375 196.6328125 C-16.94764132 205.54141292 -19.12700369 214.43760964 -21.37109375 223.3203125 C-23.64939349 232.35659738 -25.77530854 241.42091813 -27.84790039 250.50634766 C-30.08311996 260.25703615 -32.43599443 269.97735866 -34.80859375 279.6953125 C-35.00409821 280.49609222 -35.19960266 281.29687195 -35.40103149 282.12191772 C-36.17484022 285.29078584 -36.94873958 288.45963177 -37.72294617 291.62840271 C-39.26872479 297.95910495 -40.79353608 304.29468766 -42.30859375 310.6328125 C-48.14581934 335.01073261 -54.08254275 359.36294051 -60.20092773 383.671875 C-62.47521992 392.71998118 -64.70193539 401.77651505 -66.72558594 410.88476562 C-69.43182648 422.68912915 -69.43182648 422.68912915 -73.48168945 425.80444336 C-76.9255902 427.42274062 -79.4201092 427.52058465 -83.21875 427.53125 C-84.53810547 427.53511719 -85.85746094 427.53898437 -87.21679688 427.54296875 C-88.23978882 427.53354248 -88.23978882 427.53354248 -89.28344727 427.52392578 C-91.36866434 427.50783125 -93.45195132 427.52381408 -95.53710938 427.54296875 C-96.85517578 427.53910156 -98.17324219 427.53523438 -99.53125 427.53125 C-101.33734741 427.52617432 -101.33734741 427.52617432 -103.17993164 427.52099609 C-106.67894498 427.08686178 -108.05378137 426.85014188 -110.30859375 424.1328125 C-111.63779011 418.38426688 -111.15224732 413.75867583 -109.68359375 408.05859375 C-109.50155396 407.30575607 -109.31951416 406.5529184 -109.13195801 405.77726746 C-108.53702962 403.32992705 -107.92291719 400.88784916 -107.30859375 398.4453125 C-106.88733769 396.72688901 -106.46743114 395.00813418 -106.04882812 393.2890625 C-105.20633906 389.83755545 -104.35667101 386.38795558 -103.5 382.93994141 C-101.9037523 376.51200154 -100.35711051 370.07240428 -98.80859375 363.6328125 C-98.25002311 361.32551524 -97.69142879 359.01822371 -97.1328125 356.7109375 C-94.93564994 347.60788055 -92.7777511 338.49553712 -90.62109375 329.3828125 C-90.43450195 328.59447021 -90.24791016 327.80612793 -90.05566406 326.99389648 C-89.51081425 324.69130334 -88.96624885 322.38864322 -88.421875 320.0859375 C-88.24446777 319.33550674 -88.06706055 318.58507599 -87.88427734 317.81190491 C-87.0235302 314.1683005 -86.16533865 310.52412619 -85.3125 306.87866211 C-83.58227274 299.48739327 -81.8239879 292.10400058 -80.01953125 284.73046875 C-79.82761703 283.94608429 -79.63570282 283.16169983 -79.43797302 282.35354614 C-78.65498936 279.15585521 -77.87127213 275.9583491 -77.08496094 272.76147461 C-76.49875572 270.37659798 -75.91456842 267.99124391 -75.33203125 265.60546875 C-75.14888367 264.85544586 -74.96573608 264.10542297 -74.77703857 263.33267212 C-73.61002122 258.50616298 -72.5629965 253.67259028 -71.68994141 248.78295898 C-71.30859375 247.1328125 -71.30859375 247.1328125 -70.30859375 246.1328125 C-69.87590881 244.28689761 -69.49033722 242.4299569 -69.12109375 240.5703125 C-67.76623999 234.06439638 -66.20001929 227.63442246 -64.55859375 221.1953125 C-62.78261768 214.21108015 -61.0781202 207.21622119 -59.50390625 200.18359375 C-59.35207886 199.50533035 -59.20025146 198.82706696 -59.04382324 198.12825012 C-58.30329137 194.80981924 -57.57044737 191.48992744 -56.84472656 188.16821289 C-55.2327868 180.8806237 -53.36378293 173.73326163 -51.26806641 166.57080078 C-49.70702086 160.97725286 -48.51190525 155.31217834 -47.30859375 149.6328125 C-45.8558572 142.77621527 -44.31603428 136.00156772 -42.34375 129.2734375 C-40.13327375 121.71388201 -38.41931709 114.07343928 -36.74609375 106.3828125 C-35.04630813 98.58246516 -33.32675878 90.83809967 -30.94067383 83.21240234 C-30.09951416 80.44492532 -29.4999348 77.65569531 -28.93359375 74.8203125 C-26.92555561 65.20823143 -24.63150949 55.67322468 -22.30859375 46.1328125 C-21.92294798 44.54005513 -21.53737383 42.94728041 -21.15185547 41.35449219 C-20.06250308 36.85958054 -18.96247424 32.36736726 -17.85696411 27.87640381 C-17.40969836 26.05405685 -16.96523871 24.23101879 -16.52365112 22.4072876 C-15.89483287 19.81376349 -15.25529224 17.22309788 -14.61328125 14.6328125 C-14.42587875 13.85026093 -14.23847626 13.06770935 -14.0453949 12.26144409 C-13.0031922 8.10763479 -11.87239092 4.64926361 -9.30859375 1.1328125 C-6.32447133 -0.35924871 -3.27121903 -0.00943127 0 0 Z " fill="#37BCAF" transform="translate(272.30859375,29.8671875)"/>
<path d="M0 0 C2.50590845 1.69595308 4.46871142 3.70670987 6.5 5.9375 C7.304375 6.76411133 7.304375 6.76411133 8.125 7.60742188 C12 11.67518335 12 11.67518335 12 14 C12.66 14 13.32 14 14 14 C16.78438754 18.17658131 16.93034548 22.04679001 17 27 C15.05881193 36.35299706 6.81136661 42.32954715 -0.08203125 48.3046875 C-2.49490892 50.43745513 -4.75385615 52.69314956 -7 55 C-8.1446875 56.11375 -8.1446875 56.11375 -9.3125 57.25 C-12.22767925 60.23297412 -14.93889861 63.35052076 -17.64453125 66.5234375 C-19.56678879 68.54451756 -21.48080533 70.30288022 -23.59692383 72.10620117 C-28.21478924 76.12483498 -32.51017495 80.41836326 -36.8046875 84.77734375 C-38.45560029 86.44088312 -40.1066457 88.10429088 -41.7578125 89.76757812 C-44.33392628 92.36866192 -46.90840162 94.97133041 -49.48046875 97.57641602 C-51.98007033 100.10603361 -54.48570187 102.62954984 -56.9921875 105.15234375 C-57.76609833 105.9397142 -58.54000916 106.72708466 -59.33737183 107.53831482 C-60.05216705 108.2564888 -60.76696228 108.97466278 -61.50341797 109.71459961 C-62.13214813 110.3507872 -62.7608783 110.98697479 -63.40866089 111.6424408 C-65 113 -65 113 -67 113 C-67.24387451 113.56984619 -67.48774902 114.13969238 -67.73901367 114.72680664 C-69.2288452 117.41254166 -70.98905176 119.21475173 -73.17578125 121.37109375 C-74.00400391 122.19287109 -74.83222656 123.01464844 -75.68554688 123.86132812 C-76.55244141 124.71146484 -77.41933594 125.56160156 -78.3125 126.4375 C-79.16779297 127.28376953 -80.02308594 128.13003906 -80.90429688 129.00195312 C-81.73638672 129.82501953 -82.56847656 130.64808594 -83.42578125 131.49609375 C-84.22234131 132.28459717 -85.01890137 133.07310059 -85.83959961 133.88549805 C-87.11366291 135.13249344 -88.3991137 136.36832932 -89.70922852 137.57739258 C-92.53291678 140.20679266 -92.97815969 140.73354827 -93.3125 144.8125 C-93.1578125 146.3903125 -93.1578125 146.3903125 -93 148 C-92.443125 148.226875 -91.88625 148.45375 -91.3125 148.6875 C-87.31561114 150.95600449 -84.46033351 153.61899946 -83 158 C-82.34 158.33 -81.68 158.66 -81 159 C-80.34 159.33 -79.68 159.66 -79 160 C-78.67 160.99 -78.34 161.98 -78 163 C-77.443125 163.268125 -76.88625 163.53625 -76.3125 163.8125 C-72.96235837 165.532843 -70.37574493 168.08575288 -68 171 C-68 171.66 -68 172.32 -68 173 C-67.4030835 173.27094482 -66.80616699 173.54188965 -66.19116211 173.82104492 C-64.02905086 174.98436918 -62.64906014 176.11926454 -60.94140625 177.86328125 C-60.39033203 178.42080078 -59.83925781 178.97832031 -59.27148438 179.55273438 C-58.42553711 180.42381836 -58.42553711 180.42381836 -57.5625 181.3125 C-57.00240234 181.88162109 -56.44230469 182.45074219 -55.86523438 183.03710938 C-54.80696229 184.11266945 -53.7507759 185.19028921 -52.69750977 186.27075195 C-48.44146785 190.60636894 -44.10712149 194.85985743 -39.75683594 199.1003418 C-33.6149706 205.09516498 -27.49604033 211.11285729 -21.38976669 217.14392376 C-17.70153273 220.78511805 -14.00532186 224.4173987 -10.29003906 228.03100586 C-6.68529755 231.5377576 -3.10317879 235.06622922 0.46453094 238.61063576 C1.82341558 239.95295014 3.19017083 241.28734676 4.56494904 242.61337852 C16.6458786 254.28237169 16.6458786 254.28237169 17.38574219 260.69067383 C17.13427206 269.84187067 12.27395598 274.87906734 6 281 C5.175 281.886875 4.35 282.77375 3.5 283.6875 C-0.09189935 287.0100069 -2.59153235 287.87195749 -7.4375 288.3125 C-14.52552911 287.69074306 -18.44464707 284.09765686 -23 279 C-23 278.34 -23 277.68 -23 277 C-23.53625 276.79375 -24.0725 276.5875 -24.625 276.375 C-27.91978009 274.46749574 -30.59363628 271.95180616 -33 269 C-33 268.34 -33 267.68 -33 267 C-33.83111298 266.65588074 -33.83111298 266.65588074 -34.67901611 266.30480957 C-37.65428419 264.63217484 -39.71884697 262.53565537 -42.13574219 260.12304688 C-42.63375839 259.62853531 -43.1317746 259.13402374 -43.6448822 258.62452698 C-45.28393562 256.99425197 -46.91559366 255.35679915 -48.546875 253.71875 C-49.68429815 252.58267419 -50.82201804 251.4468954 -51.96002197 250.31140137 C-54.34038451 247.93398445 -56.71709882 245.55299452 -59.09130859 243.16943359 C-62.14017706 240.109145 -65.1979704 237.05795651 -68.25852585 234.00936127 C-70.60749631 231.66760239 -72.95170142 229.32112004 -75.29447174 226.97315979 C-76.42057586 225.84571857 -77.54817561 224.71976922 -78.67726898 223.59532166 C-80.25033812 222.02730903 -81.81689086 220.45306824 -83.38183594 218.87695312 C-84.27578064 217.98141724 -85.16972534 217.08588135 -86.09075928 216.16320801 C-88 214 -88 214 -88 212 C-88.57209702 211.75322006 -89.14419403 211.50644012 -89.73362732 211.25218201 C-92.37006238 209.79553872 -94.1383258 208.10167695 -96.26196289 205.96508789 C-97.09284927 205.13405045 -97.92373566 204.303013 -98.77980042 203.4467926 C-99.66844284 202.54782761 -100.55708527 201.64886261 -101.47265625 200.72265625 C-102.39211533 199.80036728 -103.3115744 198.87807831 -104.25889587 197.92784119 C-106.70018159 195.4789346 -109.13540569 193.024086 -111.56939697 190.56793213 C-114.0433057 188.07359543 -116.52284981 185.58487513 -119.00195312 183.09570312 C-123.36301719 178.71551591 -127.71911973 174.33043478 -132.07167053 169.94178772 C-133.27820256 168.72683503 -134.5044697 167.53082493 -135.75828552 166.36473083 C-137 165 -137 165 -137 163 C-137.61617187 162.74734375 -138.23234375 162.4946875 -138.8671875 162.234375 C-142.45388118 160.15855961 -143.42161952 156.69215876 -145 153 C-145.433125 152.030625 -145.86625 151.06125 -146.3125 150.0625 C-147.99781007 142.55520968 -145.85956315 135.49489966 -142 129 C-135.68886762 121.24255345 -128.41711516 114.25204584 -121.36499023 107.17211914 C-120.2237794 106.02298454 -119.0827424 104.8736773 -117.94186401 103.72421265 C-114.23443942 99.99087332 -110.52183617 96.2627078 -106.80859375 92.53515625 C-105.52316413 91.24435802 -104.23773898 89.95355536 -102.95231819 88.66274834 C-97.60725992 83.29612381 -92.26078884 77.93091343 -86.9105978 72.56940556 C-79.27150416 64.91403676 -71.64106712 57.25026367 -64.02227825 49.57468516 C-58.64479476 44.15849704 -53.25775609 38.75193167 -47.8635307 33.35241789 C-44.64899439 30.13423463 -41.43874837 26.91203219 -38.23867607 23.67946053 C-35.23306362 20.6437514 -32.21576531 17.62016331 -29.18918991 14.60535812 C-28.08354672 13.49993539 -26.98214449 12.39025129 -25.88544273 11.27595711 C-10.86338927 -3.97380114 -10.86338927 -3.97380114 0 0 Z " fill="#36BCAE" transform="translate(147,99)"/>
<path d="M0 0 C3.125 1.375 3.125 1.375 5 3 C5 3.66 5 4.32 5 5 C5.59425781 5.25652344 6.18851562 5.51304688 6.80078125 5.77734375 C9.21062253 7.11709565 10.44871988 8.4373243 12.1875 10.5625 C16.2023553 15.31125358 20.56810799 19.64336653 25 24 C26.66666667 25.66666667 28.33333333 27.33333333 30 29 C31.07314453 30.07121094 31.07314453 30.07121094 32.16796875 31.1640625 C34.32857987 33.32387723 36.47958838 35.49301183 38.62890625 37.6640625 C39.94005846 38.98442039 41.25125727 40.304732 42.5625 41.625 C43.22185547 42.29273438 43.88121094 42.96046875 44.56054688 43.6484375 C45.52250977 44.61523438 45.52250977 44.61523438 46.50390625 45.6015625 C47.07955322 46.18244629 47.6552002 46.76333008 48.24829102 47.36181641 C50.00699036 49.07794566 50.00699036 49.07794566 52.21850586 50.58740234 C52.80639893 51.05355957 53.39429199 51.5197168 54 52 C54 52.66 54 53.32 54 54 C54.639375 54.268125 55.27875 54.53625 55.9375 54.8125 C58 56 58 56 59 59 C59.66 59 60.32 59 61 59 C61 59.66 61 60.32 61 61 C62.485 61.495 62.485 61.495 64 62 C64 62.66 64 63.32 64 64 C64.639375 64.268125 65.27875 64.53625 65.9375 64.8125 C68 66 68 66 69 69 C70.32766018 69.67789429 71.66185357 70.34304768 73 71 C74.78125 72.83984375 74.78125 72.83984375 76.5 74.9375 C78.31996437 77.15041123 79.90317584 78.92891607 82.21875 80.62890625 C82.8065625 81.08136719 83.394375 81.53382813 84 82 C84 82.66 84 83.32 84 84 C84.639375 84.268125 85.27875 84.53625 85.9375 84.8125 C88 86 88 86 89 89 C89.5775 89.28875 90.155 89.5775 90.75 89.875 C93.79974294 91.39987147 95.72780132 93.48215822 98 96 C98.33 96.99 98.66 97.98 99 99 C99.99 99.33 100.98 99.66 102 100 C103.5078125 101.56640625 103.5078125 101.56640625 105.125 103.5625 C107.73622686 106.65300267 110.43525198 109.35887756 113.5 112 C117.75912241 115.69413678 121.38880932 119.68286226 125 124 C125.886875 124.969375 126.77375 125.93875 127.6875 126.9375 C133.15534448 134.17869945 135.15527793 140.92281623 134 150 C133.26551841 152.64016357 132.32386621 154.5483959 131 157 C130.484375 157.969375 129.96875 158.93875 129.4375 159.9375 C128.963125 160.618125 128.48875 161.29875 128 162 C127.34 162 126.68 162 126 162 C126 162.66 126 163.32 126 164 C125.34 164 124.68 164 124 164 C123.77868408 164.5472876 123.55736816 165.0945752 123.3293457 165.65844727 C121.58424972 168.73231605 119.23405048 171.01305625 116.73046875 173.46484375 C116.21245193 173.98003067 115.69443512 174.49521759 115.16072083 175.02601624 C113.50763285 176.6679495 111.84773823 178.30280019 110.1875 179.9375 C109.08222129 181.03273809 107.97739872 182.12843671 106.87304688 183.22460938 C104.83118615 185.2501893 102.78665531 187.27298942 100.73901367 189.29272461 C98.91166519 191.09889872 97.10943553 192.93084084 95.33325195 194.78735352 C93 197 93 197 90 198 C89.32298344 199.32810798 88.65852434 200.66262649 88 202 C86.47765284 203.70791386 84.89691448 205.36445558 83.28125 206.984375 C81.88326172 208.38623047 81.88326172 208.38623047 80.45703125 209.81640625 C79.7292749 210.53787842 79.7292749 210.53787842 78.98681641 211.27392578 C77.49793661 212.75204848 76.02008349 214.24059911 74.54296875 215.73046875 C73.61097656 216.65988281 72.67898438 217.58929688 71.71875 218.546875 C70.86216797 219.40120117 70.00558594 220.25552734 69.12304688 221.13574219 C67 223 67 223 65 223 C64.68482422 223.80195801 64.68482422 223.80195801 64.36328125 224.62011719 C62.47038985 227.9245415 59.86934474 230.41594503 57.1875 233.078125 C56.61797607 233.64956238 56.04845215 234.22099976 55.46166992 234.80975342 C54.2604332 236.01234789 53.05668003 237.21243334 51.85058594 238.41015625 C49.99959045 240.25040717 48.15954554 242.10112633 46.3203125 243.953125 C45.15168276 245.12043384 43.98243316 246.28712251 42.8125 247.453125 C42.26037842 248.00929504 41.70825684 248.56546509 41.1394043 249.13848877 C37.22993635 253 37.22993635 253 35 253 C34.773125 253.556875 34.54625 254.11375 34.3125 254.6875 C32.6308113 257.65047533 30.43353053 259.61404159 28 262 C26.24047587 263.80301874 24.4827521 265.60779567 22.7265625 267.4140625 C21.21283707 268.95728524 19.69718725 270.49858917 18.18066406 272.0390625 C17.14351446 273.09639518 16.10997405 274.15728029 15.08007812 275.22167969 C13.57595663 276.77466118 12.05897392 278.31405016 10.5390625 279.8515625 C9.64396973 280.76760254 8.74887695 281.68364258 7.82666016 282.62744141 C3.87943422 285.94054744 0.12303195 287.7400369 -5.0625 288.375 C-11.28862689 287.58017529 -14.8351672 284.45540253 -19 280 C-20.58106596 278.43520573 -22.16457559 276.87287821 -23.75 275.3125 C-27.91754127 271.20705786 -29.2021505 269.25752759 -29.5 263.375 C-29.46651354 258.70363851 -29.00329239 256.19477054 -25.875 252.6875 C-24.59510587 251.44607965 -23.30368112 250.21641646 -22 249 C-21.00615403 247.82475798 -20.02625211 246.63754395 -19.0625 245.4375 C-16.98468117 243.00427623 -14.80889103 240.90153354 -12.36924744 238.83375549 C-7.73080614 234.8168478 -3.37872107 230.54821482 0.97045898 226.22241211 C2.25727318 224.94786415 2.25727318 224.94786415 3.57008362 223.64756775 C6.38176716 220.86051581 9.18955242 218.06957103 11.99609375 215.27734375 C12.96809028 214.31071619 13.94009106 213.34409291 14.91209602 212.37747383 C18.95242558 208.35870501 22.99134402 204.33852685 27.0265646 200.31462765 C32.78883891 194.56863714 38.55948521 188.83135345 44.34193176 183.10566133 C48.42216738 179.06410858 52.49278952 175.01303214 56.55637413 170.95473868 C58.97865055 168.53611146 61.40491253 166.12182976 63.84155083 163.71766472 C66.55129361 161.03940281 69.24498351 158.34594595 71.93530273 155.64819336 C72.74200409 154.85789734 73.54870544 154.06760132 74.37985229 153.25335693 C78.62663199 148.98447719 78.62663199 148.98447719 81.07606506 143.57643127 C81.21446792 140.99970118 81.21446792 140.99970118 79.84765625 139.12890625 C78.96400391 138.35353516 78.96400391 138.35353516 78.0625 137.5625 C77.41667969 136.97855469 76.77085937 136.39460937 76.10546875 135.79296875 C75.41066406 135.20128906 74.71585937 134.60960937 74 134 C72.97326172 133.09701172 72.97326172 133.09701172 71.92578125 132.17578125 C70.57138557 130.98649285 69.2120808 129.80276917 67.84765625 128.625 C65.45433372 126.52009054 63.2229588 124.28303877 61 122 C60.175 121.175 59.35 120.35 58.5 119.5 C52.66666667 113.66666667 46.83333333 107.83333333 41 102 C40.113125 101.154375 39.22625 100.30875 38.3125 99.4375 C36 97 36 97 34.9375 94.8125 C34.14554421 92.83792886 34.14554421 92.83792886 32.11328125 92.0859375 C29.81969549 90.90734814 28.81984229 89.83020906 27.25 87.8125 C24.37050579 84.28493548 21.16020738 81.45060716 17.63671875 78.578125 C16 77 16 77 15 74 C14.43796875 73.7215625 13.8759375 73.443125 13.296875 73.15625 C10.05969535 71.52664936 7.76380516 69.05339264 5.25 66.5 C4.74339844 66.00113281 4.23679687 65.50226563 3.71484375 64.98828125 C0 61.25341139 0 61.25341139 0 59 C-0.81658081 58.67128906 -0.81658081 58.67128906 -1.6496582 58.3359375 C-4.77218136 56.56109106 -7.1048817 54.16143785 -9.60546875 51.625 C-10.13014236 51.09986816 -10.65481598 50.57473633 -11.19538879 50.03369141 C-12.29954773 48.92651982 -13.40128372 47.81692723 -14.50073242 46.70507812 C-16.18680938 45.00069812 -17.88079845 43.3045029 -19.57617188 41.609375 C-20.64891143 40.53172156 -21.72119312 39.45361211 -22.79296875 38.375 C-23.30022995 37.86662598 -23.80749115 37.35825195 -24.3301239 36.83447266 C-28.20635881 32.90534109 -29.22135276 30.87828304 -29.5 25.375 C-29.44649663 20.88071669 -29.10514715 18.28887749 -26.125 14.875 C-24.77178527 13.56052761 -23.3940327 12.27110213 -22 11 C-20.226806 9.18980941 -18.4560375 7.37724022 -16.6875 5.5625 C-11.13125409 -0.01076351 -7.80070286 -0.71026808 0 0 Z " fill="#37BCAF" transform="translate(366,99)"/>
<path d="M0 0 C0.33 0.66 0.66 1.32 1 2 C1.66 2.33 2.32 2.66 3 3 C0.71643754 5.34138543 -1.57813374 7.67166982 -3.875 10 C-4.52597656 10.66773437 -5.17695313 11.33546875 -5.84765625 12.0234375 C-6.47285156 12.65507813 -7.09804688 13.28671875 -7.7421875 13.9375 C-8.3182373 14.52402344 -8.89428711 15.11054687 -9.48779297 15.71484375 C-11 17 -11 17 -13 17 C-13.57415243 21.44740297 -14.04018198 25.3754147 -11.546875 29.26953125 C-10.31205051 30.62628169 -9.04462019 31.95408628 -7.74609375 33.25 C-5.71156329 35.28908198 -4.42339256 37.50906302 -3 40 C-1.41754725 41.75149165 -1.41754725 41.75149165 0 43 C-0.33 43.66 -0.66 44.32 -1 45 C-3.31655803 42.71240451 -5.62753483 40.41925113 -7.9375 38.125 C-8.59685547 37.47402344 -9.25621094 36.82304687 -9.93554688 36.15234375 C-10.56396484 35.52714844 -11.19238281 34.90195313 -11.83984375 34.2578125 C-12.42113037 33.6817627 -13.00241699 33.10571289 -13.60131836 32.51220703 C-16.91833246 28.92596417 -16.51489339 24.76339447 -16.46484375 20.09765625 C-15.68323324 14.88910889 -12.77502385 12.42624448 -9 9 C-7.35025599 7.33720421 -5.70443215 5.67051009 -4.0625 4 C-2.71083496 2.66413071 -1.35757174 1.3298662 0 0 Z " fill="#69C7BD" transform="translate(353,101)"/>
<path d="M0 0 C5.77291472 2.77955153 10.31055512 5.98842784 14.8125 10.5625 C15.31458984 11.05685547 15.81667969 11.55121094 16.33398438 12.06054688 C20 15.74651361 20 15.74651361 20 18 C20.56203125 18.2371875 21.1240625 18.474375 21.703125 18.71875 C24.51894042 20.28947697 26.47955416 22.21471464 28.75 24.5 C29.54921875 25.2940625 30.3484375 26.088125 31.171875 26.90625 C33 29 33 29 33 31 C33.5775 31.2475 34.155 31.495 34.75 31.75 C38.09326408 33.60736894 40.51919253 35.55757759 41.75 39.25 C41.8325 39.8275 41.915 40.405 42 41 C38.87353147 39.64564617 37.10708647 38.22498698 35 35.5625 C32.8546863 32.93802994 30.74288609 31.00441676 28 29 C28 28.34 28 27.68 28 27 C27.45859375 26.7834375 26.9171875 26.566875 26.359375 26.34375 C23.18354656 24.53500003 20.79271919 22.08276201 18.25 19.5 C17.74339844 19.00113281 17.23679687 18.50226563 16.71484375 17.98828125 C13 14.25341139 13 14.25341139 13 12 C12.43796875 11.76410156 11.8759375 11.52820313 11.296875 11.28515625 C8.46734314 9.70196581 6.51976385 7.74806026 4.25 5.4375 C3.45078125 4.63183594 2.6515625 3.82617188 1.828125 2.99609375 C0 1 0 1 0 0 Z " fill="#60C5BA" transform="translate(353,146)"/>
<path d="M0 0 C5.22948744 4.37029366 10.10289955 8.96911804 14.90234375 13.8046875 C15.6249086 14.5286673 16.34747345 15.25264709 17.0919342 15.99856567 C19.37616922 18.28835265 21.65688312 20.58160993 23.9375 22.875 C25.49521039 24.43773161 27.05315087 26.0002339 28.61132812 27.5625 C32.41021602 31.3723531 36.20622713 35.18505379 40 39 C38.12011719 39.58520508 38.12011719 39.58520508 36 40 C34.078125 38.63671875 34.078125 38.63671875 32.25 36.6875 C31.63640625 36.05199219 31.0228125 35.41648437 30.390625 34.76171875 C29 33 29 33 29 31 C28.4225 30.7525 27.845 30.505 27.25 30.25 C24.67060021 28.81700012 22.93878408 27.21575324 21 25 C21 24.34 21 23.68 21 23 C20.01 22.67 19.02 22.34 18 22 C18 21.34 18 20.68 18 20 C17.41605469 19.74089844 16.83210938 19.48179687 16.23046875 19.21484375 C13.83955152 17.91261037 12.22512904 16.49172452 10.3125 14.5625 C9.71050781 13.96566406 9.10851562 13.36882812 8.48828125 12.75390625 C7 11 7 11 6 8 C4.7625 7.319375 4.7625 7.319375 3.5 6.625 C1 5 1 5 0.1875 2.3125 C0.0946875 1.1678125 0.0946875 1.1678125 0 0 Z " fill="#50BEB2" transform="translate(122,314)"/>
<path d="M0 0 C0.6484375 1.80078125 0.6484375 1.80078125 1 4 C-0.91036352 6.56390893 -2.78567695 8.71911413 -5 11 C-5.73605469 11.78632813 -6.47210938 12.57265625 -7.23046875 13.3828125 C-11.06597016 17.37892955 -13.83949552 19.95640588 -19 22 C-19.66 23.010625 -20.32 24.02125 -21 25.0625 C-23 28 -23 28 -25.75 28.875 C-26.4925 28.91625 -27.235 28.9575 -28 29 C-22.61359076 22.44622903 -16.64114873 16.52753365 -10.625 10.5625 C-9.59221405 9.53474017 -8.55966009 8.50674715 -7.52734375 7.47851562 C-5.02089713 4.98298402 -2.5113292 2.49061918 0 0 Z " fill="#52C1B6" transform="translate(60,172)"/>
<path d="M0 0 C5.18865914 1.29884723 8.2133889 3.67137204 11.8359375 7.4453125 C12.62226059 8.24012527 12.62226059 8.24012527 13.42446899 9.05099487 C15.08433494 10.7331176 16.72968962 12.42864985 18.375 14.125 C19.50297366 15.27305244 20.63187101 16.42019813 21.76171875 17.56640625 C24.51861187 20.36722445 27.26258254 23.18014931 30 26 C29.67 26.66 29.34 27.32 29 28 C26.96166576 26.7260411 24.96147874 25.38938077 23 24 C23 23.34 23 22.68 23 22 C22.4337793 21.75902588 21.86755859 21.51805176 21.28417969 21.26977539 C18.53867753 19.74355086 16.66842243 17.91063548 14.453125 15.68359375 C13.60878906 14.83732422 12.76445313 13.99105469 11.89453125 13.11914062 C11.02183594 12.23419922 10.14914063 11.34925781 9.25 10.4375 C8.36183594 9.54869141 7.47367188 8.65988281 6.55859375 7.74414062 C0 1.14021097 0 1.14021097 0 0 Z " fill="#61C4B8" transform="translate(36,289)"/>
<path d="M0 0 C5.49075979 2.64369916 9.77849208 5.53037542 14.08203125 9.88671875 C14.54107346 10.34859085 15.00011566 10.81046295 15.47306824 11.28633118 C16.92434914 12.74872138 18.36848204 14.21794126 19.8125 15.6875 C20.80096646 16.68600823 21.78989437 17.68405989 22.77929688 18.68164062 C25.19077274 21.11664308 27.59744957 23.5561959 30 26 C29.67 26.66 29.34 27.32 29 28 C28.608125 27.566875 28.21625 27.13375 27.8125 26.6875 C26.0370551 24.90390575 26.0370551 24.90390575 23.7043457 23.69775391 C20.68625589 21.80303543 18.43074721 19.67331145 15.91796875 17.1484375 C14.98662109 16.21515625 14.05527344 15.281875 13.09570312 14.3203125 C12.61883057 13.83723633 12.14195801 13.35416016 11.65063477 12.85644531 C10.17977404 11.36717736 8.70091562 9.88621779 7.22070312 8.40625 C0 1.14026024 0 1.14026024 0 0 Z " fill="#5EC4B8" transform="translate(81,334)"/>
<path d="M0 0 C1.67373448 1.5150831 3.20431673 3.09191547 4.72412109 4.76098633 C5.26037109 5.31206055 5.79662109 5.86313477 6.34912109 6.4309082 C10.22412109 10.49866968 10.22412109 10.49866968 10.22412109 12.82348633 C10.88412109 12.82348633 11.54412109 12.82348633 12.22412109 12.82348633 C14.25314731 15.86702566 14.63850855 17.23105515 15.03662109 20.76098633 C15.14619141 21.61563477 15.25576172 22.4702832 15.36865234 23.35083008 C15.19152486 26.38114617 14.22057452 27.60004594 12.22412109 29.82348633 C12.19833984 29.01524414 12.17255859 28.20700195 12.14599609 27.37426758 C11.80477061 19.26990047 11.80477061 19.26990047 7.22412109 12.82348633 C6.79099609 12.03973633 6.35787109 11.25598633 5.91162109 10.44848633 C3.43061297 6.58914036 1.22771273 3.21348876 -2.77587891 0.82348633 C-7.17313195 0.23855418 -11.36835658 0.40593158 -15.77587891 0.82348633 C-11.62812495 -3.32426763 -4.83136842 -3.20076498 0 0 Z " fill="#96D8D2" transform="translate(148.77587890625,100.176513671875)"/>
<path d="M0 0 C0 3.47154294 -0.11043925 5.87861835 -2.30688477 8.64746094 C-2.84627686 9.17114258 -3.38566895 9.69482422 -3.94140625 10.234375 C-4.52470703 10.80800781 -5.10800781 11.38164062 -5.70898438 11.97265625 C-6.32064453 12.55917969 -6.93230469 13.14570313 -7.5625 13.75 C-8.17802734 14.35199219 -8.79355469 14.95398438 -9.42773438 15.57421875 C-10.94514813 17.05634381 -12.47170596 18.5290967 -14 20 C-14.66 19.67 -15.32 19.34 -16 19 C-16 16 -16 16 -14.53125 14.19067383 C-13.8609375 13.53607178 -13.190625 12.88146973 -12.5 12.20703125 C-11.778125 11.49482422 -11.05625 10.78261719 -10.3125 10.04882812 C-9.549375 9.31083984 -8.78625 8.57285156 -8 7.8125 C-6.8553125 6.68811523 -6.8553125 6.68811523 -5.6875 5.54101562 C-3.79819161 3.68713177 -1.90224794 1.84058931 0 0 Z " fill="#54C1B5" transform="translate(446,246)"/>
<path d="M0 0 C0 6.75095363 -6.23675214 11.97424359 -10.5625 16.7109375 C-12 18 -12 18 -14 18 C-14.33 18.99 -14.66 19.98 -15 21 C-17.0625 22.6875 -17.0625 22.6875 -19 24 C-17.03708161 14.16383751 -6.89724087 6.69635036 0 0 Z " fill="#5DC4BA" transform="translate(22,210)"/>
<path d="M0 0 C0.33 0.66 0.66 1.32 1 2 C1.66 2.33 2.32 2.66 3 3 C-1.62 7.62 -6.24 12.24 -11 17 C-11.33 16.34 -11.66 15.68 -12 15 C-12.66 14.67 -13.32 14.34 -14 14 C-9.38 9.38 -4.76 4.76 0 0 Z " fill="#58C3B8" transform="translate(353,101)"/>
<path d="M0 0 C7.15801225 5.82628904 13.52591766 12.4382985 20 19 C18.12011719 19.58520508 18.12011719 19.58520508 16 20 C14.078125 18.63671875 14.078125 18.63671875 12.25 16.6875 C11.63640625 16.05199219 11.0228125 15.41648437 10.390625 14.76171875 C9 13 9 13 9 11 C8.13375 10.62875 8.13375 10.62875 7.25 10.25 C4.61295899 8.78497722 2.92641136 7.32497923 1 5 C0.25 2.25 0.25 2.25 0 0 Z " fill="#67C7BB" transform="translate(142,334)"/>
<path d="M0 0 C4.10836244 1.97810044 7.94235783 3.94235783 11.1875 7.1875 C15.3317697 9.85825159 19.20026194 9.33551567 24 9 C23 12 23 12 21 13 C16.11344783 13.44423202 13.16380883 12.56915864 9 10 C5.61956529 6.94151145 2.78152427 3.60567961 0 0 Z " fill="#60C5BA" transform="translate(343,374)"/>
<path d="M0 0 C1.9375 0.8125 1.9375 0.8125 4 2 C4.33 2.99 4.66 3.98 5 5 C5.66 5 6.32 5 7 5 C7 5.66 7 6.32 7 7 C7.99 7.33 8.98 7.66 10 8 C10 8.66 10 9.32 10 10 C10.639375 10.268125 11.27875 10.53625 11.9375 10.8125 C14 12 14 12 15 15 C15.99 15.33 16.98 15.66 18 16 C16.21582031 16.67871094 16.21582031 16.67871094 14 17 C12.26074219 15.87597656 12.26074219 15.87597656 10.546875 14.140625 C9.928125 13.51929688 9.309375 12.89796875 8.671875 12.2578125 C8.03765625 11.59523437 7.4034375 10.93265625 6.75 10.25 C6.1003125 9.60289062 5.450625 8.95578125 4.78125 8.2890625 C0 3.40736607 0 3.40736607 0 0 Z " fill="#76CCC1" transform="translate(420,153)"/>
<path d="M0 0 C0 3.74887518 -1.08964472 4.91935659 -3.25 7.9375 C-4.15492187 9.21947266 -4.15492187 9.21947266 -5.078125 10.52734375 C-6.90964099 12.88374542 -8.84241676 14.94265846 -11 17 C-12.32 16.34 -13.64 15.68 -15 15 C-10.05 10.05 -5.1 5.1 0 0 Z " fill="#4BC0B5" transform="translate(76,156)"/>
<path d="M0 0 C0 3.52856919 -0.02039985 5.9229665 -2.453125 8.59765625 C-9.37134779 14.23751178 -9.37134779 14.23751178 -13 16 C-13.66 15.67 -14.32 15.34 -15 15 C-10.05 10.05 -5.1 5.1 0 0 Z " fill="#60C6BB" transform="translate(120,112)"/>
<path d="M0 0 C4.37258788 1.41304456 6.95155502 3.51895055 10.1875 6.75 C11.04730469 7.59046875 11.90710938 8.4309375 12.79296875 9.296875 C15.12310533 12.15077679 16.07397049 14.46142913 17 18 C15.8274869 17.04882866 14.66212985 16.08882991 13.5 15.125 C12.8503125 14.59132813 12.200625 14.05765625 11.53125 13.5078125 C11.0259375 13.01023437 10.520625 12.51265625 10 12 C10 11.34 10 10.68 10 10 C9.195625 9.690625 9.195625 9.690625 8.375 9.375 C5.08021991 7.46749574 2.40636372 4.95180616 0 2 C0 1.34 0 0.68 0 0 Z " fill="#7FCFC5" transform="translate(114,366)"/>
<path d="M0 0 C1.485 0.99 1.485 0.99 3 2 C3 2.66 3 3.32 3 4 C3.639375 4.268125 4.27875 4.53625 4.9375 4.8125 C7 6 7 6 8 9 C8.5775 9.28875 9.155 9.5775 9.75 9.875 C12.8125413 11.40627065 14.75284001 13.44073445 17 16 C17 16.99 17 17.98 17 19 C16.608125 18.566875 16.21625 18.13375 15.8125 17.6875 C14.0510313 15.9186434 14.0510313 15.9186434 11.8125 14.75 C6.73860507 11.59290982 1.7180322 8.46823567 0 2.5625 C0 1.716875 0 0.87125 0 0 Z " fill="#73CABF" transform="translate(447,179)"/>
<path d="M0 0 C3.73487777 0.4979837 5.81237635 0.87491756 9 3 C9 3.66 9 4.32 9 5 C9.58265625 5.24492188 10.1653125 5.48984375 10.765625 5.7421875 C13.36302236 7.20435874 14.83975831 8.84740414 16.75 11.125 C17.36359375 11.84945312 17.9771875 12.57390625 18.609375 13.3203125 C19.06828125 13.87460938 19.5271875 14.42890625 20 15 C19.01 15 18.02 15 17 15 C16.67 14.34 16.34 13.68 16 13 C15.01 13 14.02 13 13 13 C11.5703125 11.5390625 11.5703125 11.5390625 10.125 9.625 C7.6861151 6.60687994 5.8524702 5.01977152 2 4 C2.33 3.01 2.66 2.02 3 1 C2.01 0.67 1.02 0.34 0 0 Z " fill="#7DCFC5" transform="translate(362,99)"/>
<path d="M0 0 C2 3 2 3 2.6875 6.25 C4.38895377 11.11129648 7.19683883 13.65443844 11 17 C6.31528307 17 3.49941827 14.30594494 0.0625 11.3125 C-1.65257414 7.57969157 -0.70089176 3.95201621 0 0 Z " fill="#52BFB3" transform="translate(338,359)"/>
<path d="M0 0 C0 4.54181015 -1.72200366 7.58568405 -4.7578125 10.9453125 C-6.47658356 12.66408356 -8.21662379 14.34854477 -10 16 C-10.66 15.67 -11.32 15.34 -12 15 C-8.46355512 9.35673689 -4.88647215 4.53743843 0 0 Z " fill="#47BFB2" transform="translate(85,147)"/>
<path d="M0 0 C0.66 1.32 1.32 2.64 2 4 C1.34 4.66 0.68 5.32 0 6 C-0.99 6 -1.98 6 -3 6 C-3.66 7.32 -4.32 8.64 -5 10 C-5.66 10 -6.32 10 -7 10 C-7 10.66 -7 11.32 -7 12 C-8.65 12.33 -10.3 12.66 -12 13 C-8.19524578 8.43969176 -4.25030379 4.14910608 0 0 Z " fill="#4ABCAC" transform="translate(426,266)"/>
<path d="M0 0 C1.32 0.66 2.64 1.32 4 2 C3.52949219 2.31453125 3.05898437 2.6290625 2.57421875 2.953125 C-0.88002433 5.32747014 -3.72778504 7.39118801 -6 11 C-7.32 10.67 -8.64 10.34 -10 10 C-6.7 6.7 -3.4 3.4 0 0 Z " fill="#68C8BD" transform="translate(131,101)"/>
<path d="M0 0 C3.40195976 1.45798275 5.40354539 3.40354539 8 6 C8.86625 6.45375 9.7325 6.9075 10.625 7.375 C13.7216974 9.49379296 14.12793637 11.43246696 15 15 C9.72997792 10.60831493 4.64697949 6.0573621 0 1 C0 0.67 0 0.34 0 0 Z " fill="#88D2CA" transform="translate(21,274)"/>
<path d="M0 0 C0.33 0 0.66 0 1 0 C0.22095672 10.55808656 0.22095672 10.55808656 -2 15 C-2.33 15 -2.66 15 -3 15 C-3.35050464 9.158256 -3.16727335 5.1468192 0 0 Z " fill="#3DB6A9" transform="translate(221,201)"/>
<path d="M0 0 C2 2 2 2 2.15234375 4.0234375 C1.56672761 10.43327239 1.56672761 10.43327239 -1.5625 13.5625 C-2.366875 14.036875 -3.17125 14.51125 -4 15 C-4 12 -4 12 -2 10 C-1.32059533 7.57284794 -1.32059533 7.57284794 -0.875 4.875 C-0.62363281 3.50988281 -0.62363281 3.50988281 -0.3671875 2.1171875 C-0.24601563 1.41851562 -0.12484375 0.71984375 0 0 Z " fill="#4FBFB2" transform="translate(162,358)"/>
<path d="M0 0 C1.5625 1.6875 1.5625 1.6875 3 4 C2.6875 6.75 2.6875 6.75 2 9 C1.34 9 0.68 9 0 9 C0 10.32 0 11.64 0 13 C-0.66 13 -1.32 13 -2 13 C-1.85769192 11.58297487 -1.71099254 10.1663904 -1.5625 8.75 C-1.48128906 7.96109375 -1.40007812 7.1721875 -1.31640625 6.359375 C-1.02365007 4.17635361 -0.57935581 2.1226818 0 0 Z " fill="#52C1B5" transform="translate(252,69)"/>
<path d="M0 0 C1.37734745 3.82596514 0.7995385 7.07499282 0 11 C-0.66 11.66 -1.32 12.32 -2 13 C-2.66 13.99 -3.32 14.98 -4 16 C-3.6083965 10.04492601 -2.62875405 5.37180176 0 0 Z " fill="#50BFB3" transform="translate(232,156)"/>
<path d="M0 0 C9.05389222 4.35928144 9.05389222 4.35928144 11 9 C11.66 9.66 12.32 10.32 13 11 C7.66076941 10.40675216 4.9002651 6.09491702 1.6875 2.1875 C1.130625 1.465625 0.57375 0.74375 0 0 Z " fill="#97D6CF" transform="translate(343,374)"/>
<path d="M0 0 C4.43379675 2.21689838 6.46636932 4.77728219 9 9 C5.85669777 8.6507442 4.20508548 8.16074267 1.6875 6.1875 C0 4 0 4 0 0 Z " fill="#78CBC1" transform="translate(484,217)"/>
<path d="M0 0 C0.66 0 1.32 0 2 0 C1.67 3.3 1.34 6.6 1 10 C0.01 10 -0.98 10 -2 10 C-1.85950482 8.52031676 -1.71245174 7.04125484 -1.5625 5.5625 C-1.48128906 4.73878906 -1.40007812 3.91507812 -1.31640625 3.06640625 C-1 1 -1 1 0 0 Z " fill="#65C6BC" transform="translate(202,276)"/>
<path d="M0 0 C0.66 0 1.32 0 2 0 C1.48594831 4.96916636 0.76615118 9.29026351 -1 14 C-1.66 13.67 -2.32 13.34 -3 13 C-2.01 8.71 -1.02 4.42 0 0 Z " fill="#4BBCAF" transform="translate(258,212)"/>
<path d="M0 0 C0 4.32035599 -2.06845243 6.9179135 -5 10 C-7.8125 10.9375 -7.8125 10.9375 -10 11 C-6.79239749 7.19364503 -3.59253891 3.45436433 0 0 Z " fill="#80CEC6" transform="translate(42,190)"/>
<path d="M0 0 C0 3.39593478 -0.52165948 4.06619881 -2.5 6.6875 C-2.9640625 7.31011719 -3.428125 7.93273437 -3.90625 8.57421875 C-4.2671875 9.04472656 -4.628125 9.51523438 -5 10 C-6.32 9.67 -7.64 9.34 -9 9 C-6.03 6.03 -3.06 3.06 0 0 Z " fill="#70CBC1" transform="translate(76,156)"/>
<path d="M0 0 C0.99 0 1.98 0 3 0 C3 0.66 3 1.32 3 2 C2.34 2 1.68 2 1 2 C1 2.66 1 3.32 1 4 C0.34 4 -0.32 4 -1 4 C-1.28875 4.639375 -1.5775 5.27875 -1.875 5.9375 C-3 8 -3 8 -5 9 C-5 7.68 -5 6.36 -5 5 C-4.34 5 -3.68 5 -3 5 C-2.5359375 4.0409375 -2.5359375 4.0409375 -2.0625 3.0625 C-1 1 -1 1 0 0 Z " fill="#58C1B5" transform="translate(491,259)"/>
<path d="M0 0 C0.66 1.32 1.32 2.64 2 4 C0.8125 5.5 0.8125 5.5 -1 7 C-3.6875 7.1875 -3.6875 7.1875 -6 7 C-4.02 4.69 -2.04 2.38 0 0 Z " fill="#5BC3B8" transform="translate(92,140)"/>
<path d="M0 0 C0.99 0 1.98 0 3 0 C2.67 1.98 2.34 3.96 2 6 C1.67 6 1.34 6 1 6 C0.67 8.64 0.34 11.28 0 14 C-0.33 14 -0.66 14 -1 14 C-1.02694851 12.04174127 -1.04637218 10.08337774 -1.0625 8.125 C-1.07410156 7.03445312 -1.08570313 5.94390625 -1.09765625 4.8203125 C-1 2 -1 2 0 0 Z " fill="#73CBC1" transform="translate(338,116)"/>
<path d="M0 0 C1.12894876 0.93274109 2.25300876 1.87140122 3.375 2.8125 C4.00148438 3.33457031 4.62796875 3.85664063 5.2734375 4.39453125 C7 6 7 6 9 9 C5.30712847 8.09729807 3.44631711 7.59508949 1.125 4.5 C0 2 0 2 0 0 Z " fill="#6CC7BD" transform="translate(122,314)"/>
<path d="M0 0 C0.99 0.33 1.98 0.66 3 1 C3 1.66 3 2.32 3 3 C3.66 3 4.32 3 5 3 C5.99 4.485 5.99 4.485 7 6 C6.67 6.99 6.34 7.98 6 9 C5.34 8.34 4.68 7.68 4 7 C3.29875 6.360625 2.5975 5.72125 1.875 5.0625 C0 3 0 3 0 0 Z " fill="#80CFC6" transform="translate(156,110)"/>
<path d="M0 0 C0 3 0 3 -1.53125 4.60546875 C-2.1809375 5.12753906 -2.830625 5.64960938 -3.5 6.1875 C-4.1496875 6.71730469 -4.799375 7.24710937 -5.46875 7.79296875 C-5.9740625 8.19128906 -6.479375 8.58960938 -7 9 C-7 7.68 -7 6.36 -7 5 C-4.0625 2.8125 -4.0625 2.8125 -1 1 C-0.67 0.67 -0.34 0.34 0 0 Z " fill="#6DC4BB" transform="translate(395,357)"/>
<path d="M0 0 C6.57142857 4 6.57142857 4 8 8 C4.65902615 7.40339753 2.45699871 6.36924875 0 4 C0 2.68 0 1.36 0 0 Z " fill="#61C3B6" transform="translate(393,126)"/>
<path d="M0 0 C0.99 0 1.98 0 3 0 C1.515 6.435 1.515 6.435 0 13 C-0.66 11.68 -1.32 10.36 -2 9 C-1.34 9 -0.68 9 0 9 C0 6.03 0 3.06 0 0 Z " fill="#64C5B9" transform="translate(298,46)"/>
<path d="M0 0 C6.57142857 4 6.57142857 4 8 8 C6.68 8 5.36 8 4 8 C4 7.34 4 6.68 4 6 C3.34 6 2.68 6 2 6 C1.34 4.02 0.68 2.04 0 0 Z " fill="#62C7BB" transform="translate(92,284)"/>
<path d="M0 0 C1.485 0.99 1.485 0.99 3 2 C3 2.66 3 3.32 3 4 C4.32 4.66 5.64 5.32 7 6 C6.01 6.66 5.02 7.32 4 8 C2 6.25 2 6.25 0 4 C0 2.68 0 1.36 0 0 Z " fill="#58C5B1" transform="translate(61,253)"/>
<path d="M0 0 C0.99 0 1.98 0 3 0 C2.34 3.3 1.68 6.6 1 10 C0.34 9.34 -0.32 8.68 -1 8 C-0.96712417 5.27130593 -0.43602229 2.7033382 0 0 Z " fill="#4CBDB1" transform="translate(249,248)"/>
<path d="M0 0 C2.17766075 4.35532149 2.03039555 5.46625958 1 10 C0.01 10 -0.98 10 -2 10 C-1.34 6.7 -0.68 3.4 0 0 Z " fill="#5CC4B9" transform="translate(171,404)"/>
<path d="M0 0 C0.33 0.66 0.66 1.32 1 2 C-1.3125 4.5 -1.3125 4.5 -4 7 C-4.99 7 -5.98 7 -7 7 C-5.54744301 3.17053157 -3.57104439 1.87949705 0 0 Z " fill="#74CBBF" transform="translate(157,373)"/>
<path d="M0 0 C1.4606285 2.64738916 2 3.89448334 2 7 C1.34 7 0.68 7 0 7 C-0.33 8.98 -0.66 10.96 -1 13 C-1.33 13 -1.66 13 -2 13 C-1.85769192 11.58297487 -1.71099254 10.1663904 -1.5625 8.75 C-1.48128906 7.96109375 -1.40007812 7.1721875 -1.31640625 6.359375 C-1.02365007 4.17635361 -0.57935581 2.1226818 0 0 Z " fill="#64C7BD" transform="translate(185,345)"/>
<path d="M0 0 C1.14926266 0.95421808 2.29430541 1.91352045 3.4375 2.875 C4.07558594 3.40867187 4.71367188 3.94234375 5.37109375 4.4921875 C7 6 7 6 8 8 C5.6875 7.8125 5.6875 7.8125 3 7 C0 2.96551724 0 2.96551724 0 0 Z " fill="#7BCBC2" transform="translate(107,299)"/>
<path d="M0 0 C0.66 0 1.32 0 2 0 C2 3.3 2 6.6 2 10 C-1 7 -1 7 -1.25 3.875 C-1 1 -1 1 0 0 Z " fill="#22AFA1" transform="translate(52,238)"/>
<path d="M0 0 C0.99 0.33 1.98 0.66 3 1 C-0.465 3.97 -0.465 3.97 -4 7 C-2.92598892 4.08482708 -2.22189824 2.22189824 0 0 Z M-7 8 C-6.01 8.495 -6.01 8.495 -5 9 C-5.99 9.495 -5.99 9.495 -7 10 C-7 9.34 -7 8.68 -7 8 Z " fill="#27B5A8" transform="translate(42,192)"/>
<path d="M0 0 C1.485 0.99 1.485 0.99 3 2 C3 2.66 3 3.32 3 4 C4.32 4.66 5.64 5.32 7 6 C7 6.99 7 7.98 7 9 C6.34 8.34 5.68 7.68 5 7 C2.93125966 6.3574765 2.93125966 6.3574765 1 6 C0.67 4.02 0.34 2.04 0 0 Z " fill="#9BDAD3" transform="translate(447,179)"/>
<path d="M0 0 C0.99 0 1.98 0 3 0 C2.25 6.625 2.25 6.625 0 10 C0 6.7 0 3.4 0 0 Z " fill="#3AB5A7" transform="translate(248,83)"/>
<path d="M0 0 C1.485 0.99 1.485 0.99 3 2 C3 2.66 3 3.32 3 4 C4.32 4.66 5.64 5.32 7 6 C5.68 6.33 4.36 6.66 3 7 C3 6.34 3 5.68 3 5 C2.01 4.67 1.02 4.34 0 4 C0 2.68 0 1.36 0 0 Z " fill="#54BEB0" transform="translate(76,268)"/>
<path d="M0 0 C2.62187494 1.04874998 3.79371361 1.64931313 5.25 4.125 C5.4975 4.74375 5.745 5.3625 6 6 C3 6 3 6 1.3125 4.6875 C0 3 0 3 0 0 Z " fill="#50BCB0" transform="translate(54,247)"/>
<path d="M0 0 C0.66 0 1.32 0 2 0 C1.34 3.3 0.68 6.6 0 10 C-2 6 -2 6 -1.125 2.75 C-0.75375 1.8425 -0.3825 0.935 0 0 Z " fill="#49BEB1" transform="translate(255,227)"/>
<path d="M0 0 C0.65234375 1.796875 0.65234375 1.796875 1 4 C-0.36489377 6.33370072 -2.1419038 8.00594554 -4 10 C-4.33 9.01 -4.66 8.02 -5 7 C-4.00390625 5.17578125 -4.00390625 5.17578125 -2.5625 3.3125 C-2.08941406 2.68988281 -1.61632812 2.06726563 -1.12890625 1.42578125 C-0.75636719 0.95527344 -0.38382812 0.48476562 0 0 Z " fill="#87D4CB" transform="translate(8,224)"/>
<path d="M0 0 C0.66 0 1.32 0 2 0 C1.67 2.97 1.34 5.94 1 9 C0.34 8.67 -0.32 8.34 -1 8 C-0.67 5.36 -0.34 2.72 0 0 Z " fill="#4EBFB3" transform="translate(191,321)"/>
<path d="M0 0 C2.475 0.495 2.475 0.495 5 1 C5 1.66 5 2.32 5 3 C5.99 3.33 6.98 3.66 8 4 C6.68 4.33 5.36 4.66 4 5 C2.68 3.35 1.36 1.7 0 0 Z " fill="#6BC8BD" transform="translate(430,165)"/>
<path d="M0 0 C0.66 0.66 1.32 1.32 2 2 C-2.75 6.875 -2.75 6.875 -5 8 C-5 7.01 -5 6.02 -5 5 C-4.01 5 -3.02 5 -2 5 C-1.7834375 4.0409375 -1.7834375 4.0409375 -1.5625 3.0625 C-1 1 -1 1 0 0 Z " fill="#69CEC4" transform="translate(128,162)"/>
<path d="M0 0 C0.99 0.33 1.98 0.66 3 1 C1.02 3.31 -0.96 5.62 -3 8 C-3.33 7.34 -3.66 6.68 -4 6 C-1.68421053 1.68421053 -1.68421053 1.68421053 0 0 Z " fill="#71CBBF" transform="translate(146,144)"/>
<path d="M0 0 C2.08954032 4.17908064 2.16552619 4.80410573 1 9 C0.01 9 -0.98 9 -2 9 C-1.34 6.03 -0.68 3.06 0 0 Z " fill="#66C8BD" transform="translate(246,94)"/>
<path d="M0 0 C0.33 0 0.66 0 1 0 C1.125 7.75 1.125 7.75 0 10 C-0.66 10 -1.32 10 -2 10 C-1.34 6.7 -0.68 3.4 0 0 Z " fill="#24AE9E" transform="translate(217,382)"/>
<path d="M0 0 C0.66 1.32 1.32 2.64 2 4 C0.02 4.99 0.02 4.99 -2 6 C-2.66 5.34 -3.32 4.68 -4 4 C-2.68 2.68 -1.36 1.36 0 0 Z " fill="#52C7BB" transform="translate(426,266)"/>
<path d="M0 0 C0.625 1.875 0.625 1.875 1 4 C0.34 4.66 -0.32 5.32 -1 6 C-3.125 5.625 -3.125 5.625 -5 5 C-3.35 3.35 -1.7 1.7 0 0 Z " fill="#6DCAC1" transform="translate(28,204)"/>
<path d="M0 0 C0.33 0 0.66 0 1 0 C1 2.64 1 5.28 1 8 C0.01 8.33 -0.98 8.66 -2 9 C-1.34 6.03 -0.68 3.06 0 0 Z " fill="#2CB2A4" transform="translate(261,201)"/>
<path d="M0 0 C0.33 0 0.66 0 1 0 C1 3.3 1 6.6 1 10 C0.01 10 -0.98 10 -2 10 C-1.34 6.7 -0.68 3.4 0 0 Z " fill="#2BB4A5" transform="translate(275,141)"/>
<path d="M0 0 C0.99 0.33 1.98 0.66 3 1 C2.01 2.32 1.02 3.64 0 5 C-1.32 4.67 -2.64 4.34 -4 4 C-2.68 2.68 -1.36 1.36 0 0 Z " fill="#5DC2B7" transform="translate(125,107)"/>
<path d="M0 0 C2.0625 0.4375 2.0625 0.4375 4 1 C1.03 3.475 1.03 3.475 -2 6 C-1.125 1.125 -1.125 1.125 0 0 Z " fill="#74CCC1" transform="translate(383,367)"/>
<path d="M0 0 C0.99 0 1.98 0 3 0 C2.34 2.97 1.68 5.94 1 9 C0.67 9 0.34 9 0 9 C0 6.03 0 3.06 0 0 Z " fill="#52C2B7" transform="translate(234,310)"/>
<path d="M0 0 C0 0.99 0 1.98 0 3 C-3 5.1875 -3 5.1875 -6 7 C-5.8125 5.1875 -5.8125 5.1875 -5 3 C-2.4375 1.25 -2.4375 1.25 0 0 Z " fill="#8CD3CB" transform="translate(159,133)"/>
<path d="M0 0 C0.99 0.33 1.98 0.66 3 1 C0.64722731 3.72426311 -1.62496331 4.8141763 -5 6 C-3.35 4.02 -1.7 2.04 0 0 Z " fill="#6EC8C1" transform="translate(102,130)"/>
<path d="M0 0 C0.66 0 1.32 0 2 0 C2 1.98 2 3.96 2 6 C1.01 6.33 0.02 6.66 -1 7 C-0.67 4.69 -0.34 2.38 0 0 Z " fill="#30B3A5" transform="translate(285,100)"/>
</svg>
